<?xml version="1.0" encoding="UTF-8"?>
<svg width="36px" height="40px" viewBox="0 0 36 40" version="1.1" xmlns="http://www.w3.org/2000/svg" xmlns:xlink="http://www.w3.org/1999/xlink">
    <defs></defs>
    <g id="Page-1" stroke="none" stroke-width="1" fill="none" fill-rule="evenodd">
        <g id="Desktop" transform="translate(-493.000000, -65.000000)">
            <g id="Logo" transform="translate(493.000000, 65.000000)">
                <path d="M7.32226562,12.5039062 C8.5175841,10.3828019 10.1523334,8.75977125 12.2265625,7.63476562 C14.3007916,6.50976 16.6327996,5.94726562 19.2226562,5.94726562 C20.8398518,5.94726562 22.3486258,6.06152229 23.7490234,6.29003906 C25.1494211,6.51855583 26.453119,6.77929541 27.6601562,7.07226562 L27.3085938,13.3125 L24.6015625,13.3125 L23.6523438,9.14648438 C23.3593735,8.85351416 22.8378944,8.58984492 22.0878906,8.35546875 C21.3378869,8.12109258 20.2890692,8.00390625 18.9414062,8.00390625 C17.2304602,8.00390625 15.7246159,8.42284737 14.4238281,9.26074219 C13.1230404,10.098637 12.106449,11.3466714 11.3740234,13.0048828 C10.6415979,14.6630942 10.2753906,16.687488 10.2753906,19.078125 C10.2753906,21.2695422 10.5830047,23.2910064 11.1982422,25.1425781 C11.8134796,26.9941499 12.7568296,28.4853459 14.0283203,29.6162109 C15.299811,30.747076 16.8613189,31.3125 18.7128906,31.3125 C19.7675834,31.3125 20.7578079,31.1865247 21.6835938,30.9345703 C22.6093796,30.6826159 23.3242162,30.3105493 23.828125,29.8183594 L23.828125,22.1191406 L19.5214844,21.7148438 L19.5214844,19.4472656 L30.015625,19.4472656 L30.015625,21.7148438 L27.9589844,22.0839844 L27.9589844,31.5585938 C27.6542954,31.5703126 27.305666,31.6259761 26.9130859,31.7255859 C26.5205058,31.8251958 26.0312529,31.9687491 25.4453125,32.15625 C24.2031188,32.5429707 23.0429741,32.8476551 21.9648438,33.0703125 C20.8867134,33.2929699 19.6855535,33.4042969 18.3613281,33.4042969 C15.7245962,33.4042969 13.4394628,32.8271542 11.5058594,31.6728516 C9.57225596,30.5185489 8.09277856,28.9277445 7.06738281,26.9003906 C6.04198706,24.8730367 5.52929688,22.582044 5.52929688,20.0273438 C5.52929688,17.132798 6.12694715,14.6250106 7.32226562,12.5039062 Z" id="G" fill="#000000"></path>
                <g id="grid" fill="#9C9C9C" fill-opacity="0.3">
                    <rect id="Rectangle" x="0" y="0" width="6" height="40"></rect>
                    <rect id="Rectangle" x="10" y="0" width="6" height="40"></rect>
                    <rect id="Rectangle" x="20" y="0" width="6" height="40"></rect>
                    <rect id="Rectangle" x="30" y="0" width="6" height="40"></rect>
                </g>
            </g>
        </g>
    </g>
</svg>