<svg width="36" height="40" viewBox="0 0 36 40" xmlns="http://www.w3.org/2000/svg"><g fill="none" fill-rule="evenodd"><path d="M7.322 12.504c1.196-2.121 2.83-3.744 4.905-4.87 2.074-1.124 4.406-1.687 6.996-1.687 1.617 0 3.126.115 4.526.343 1.4.229 2.704.49 3.911.782l-.351 6.24h-2.707l-.95-4.166c-.293-.292-.814-.556-1.564-.79-.75-.235-1.799-.352-3.147-.352-1.71 0-3.216.419-4.517 1.257-1.301.838-2.318 2.086-3.05 3.744-.732 1.658-1.099 3.682-1.099 6.073 0 2.192.308 4.213.923 6.065.615 1.851 1.559 3.342 2.83 4.473 1.272 1.131 2.833 1.697 4.685 1.697a11.26 11.26 0 0 0 2.97-.378c.926-.252 1.641-.624 2.145-1.117V22.12l-4.307-.404v-2.268h10.495v2.268l-2.057.369v9.475a5.115 5.115 0 0 0-1.046.167c-.392.1-.882.243-1.468.43a36.847 36.847 0 0 1-3.48.914c-1.078.223-2.28.334-3.604.334-2.636 0-4.922-.577-6.855-1.731-1.934-1.154-3.413-2.745-4.439-4.773-1.025-2.027-1.538-4.318-1.538-6.873 0-2.894.598-5.402 1.793-7.523z" fill="#000"/><path d="M0 0h6v40H0zm10 0h6v40h-6zm10 0h6v40h-6zm10 0h6v40h-6z" fill="#9C9C9C" fill-opacity=".3"/></g></svg>